<svg xmlns="http://www.w3.org/2000/svg" xmlns:xlink="http://www.w3.org/1999/xlink" contentStyleType="text/css" data-diagram-type="DESCRIPTION" height="363px" preserveAspectRatio="none" style="width:1662px;height:363px;background:#FFFFFF;" version="1.1" viewBox="0 0 1662 363" width="1662px" zoomAndPan="magnify"><?plantuml 1.2026.4beta2?><defs/><g><!--cluster Recovery System--><g class="cluster" data-qualified-name="Recovery System" data-source-line="7" id="ent0004"><rect fill="none" height="251" rx="2.5" ry="2.5" style="stroke:#181818;stroke-width:1;" width="1563.43" x="84.91" y="7"/><text fill="#000000" font-family="sans-serif" font-size="14" font-weight="700" lengthAdjust="spacing" textLength="136.0352" x="798.6074" y="21.9951">Recovery System</text></g><!--entity Start--><g class="entity" data-qualified-name="Recovery System.Start" data-source-line="8" id="ent0005"><ellipse cx="170.0461" cy="86.9972" fill="#F1F1F1" rx="69.1361" ry="16.2272" style="stroke:#181818;stroke-width:0.5;"/><text fill="#000000" font-family="sans-serif" font-size="14" lengthAdjust="spacing" textLength="104.1934" x="117.9495" y="91.6457">Kh&#7903;i &#273;&#7897;ng Tool</text></g><!--entity Detect--><g class="entity" data-qualified-name="Recovery System.Detect" data-source-line="9" id="ent0006"><ellipse cx="397.5861" cy="154.0012" fill="#F1F1F1" rx="97.4061" ry="21.8812" style="stroke:#181818;stroke-width:0.5;"/><text fill="#000000" font-family="sans-serif" font-size="14" lengthAdjust="spacing" textLength="170.3242" x="312.424" y="158.6497">Ph&#225;t hi&#7879;n Checkpoint c&#361;</text></g><!--entity Prompt--><g class="entity" data-qualified-name="Recovery System.Prompt" data-source-line="10" id="ent0007"><ellipse cx="788.5892" cy="63.9958" fill="#F1F1F1" rx="99.5792" ry="22.3158" style="stroke:#181818;stroke-width:0.5;"/><text fill="#000000" font-family="sans-serif" font-size="14" lengthAdjust="spacing" textLength="175.1299" x="701.0243" y="68.6443">H&#7887;i ng&#432;&#7901;i d&#249;ng Resume?</text></g><!--entity Run--><g class="entity" data-qualified-name="Recovery System.Run" data-source-line="11" id="ent0008"><ellipse cx="1167.3378" cy="134.9996" fill="#F1F1F1" rx="76.1478" ry="17.6296" style="stroke:#181818;stroke-width:0.5;"/><text fill="#000000" font-family="sans-serif" font-size="14" lengthAdjust="spacing" textLength="121.502" x="1106.5869" y="139.648">Ch&#7841;y Automation</text></g><!--entity Save--><g class="entity" data-qualified-name="Recovery System.Save" data-source-line="12" id="ent0009"><ellipse cx="1523.9051" cy="134.995" fill="#F1F1F1" rx="108.4251" ry="24.085" style="stroke:#181818;stroke-width:0.5;"/><text fill="#000000" font-family="sans-serif" font-size="14" lengthAdjust="spacing" textLength="194.4688" x="1426.6707" y="139.6435">L&#432;u Checkpoint (Auto-save)</text></g><!--entity Sleep--><g class="entity" data-qualified-name="Recovery System.Sleep" data-source-line="13" id="ent0010"><ellipse cx="788.5897" cy="142.0019" fill="#F1F1F1" rx="92.7597" ry="20.9519" style="stroke:#181818;stroke-width:0.5;"/><text fill="#000000" font-family="sans-serif" font-size="14" lengthAdjust="spacing" textLength="159.9609" x="708.6092" y="146.6504">X&#7917; l&#253; OS Sleep (Pause)</text></g><!--entity Wake--><g class="entity" data-qualified-name="Recovery System.Wake" data-source-line="14" id="ent0011"><ellipse cx="788.5878" cy="219.9996" fill="#F1F1F1" rx="99.5978" ry="22.3196" style="stroke:#181818;stroke-width:0.5;"/><text fill="#000000" font-family="sans-serif" font-size="14" lengthAdjust="spacing" textLength="175.1709" x="701.0024" y="224.648">X&#7917; l&#253; OS Wake (Resume)</text></g><!--entity User--><g class="entity" data-qualified-name="User" data-source-line="4" id="ent0002"><ellipse cx="21.9551" cy="57.35" fill="#F1F1F1" rx="8" ry="8" style="stroke:#181818;stroke-width:0.5;"/><path d="M21.9551,65.35 L21.9551,92.35 M8.9551,73.35 L34.9551,73.35 M21.9551,92.35 L8.9551,107.35 M21.9551,92.35 L34.9551,107.35" fill="none" style="stroke:#181818;stroke-width:0.5;"/><text fill="#000000" font-family="sans-serif" font-size="14" lengthAdjust="spacing" textLength="31.9102" x="6" y="121.8451">User</text></g><!--entity OS--><g class="entity" data-qualified-name="OS" data-source-line="5" id="ent0003"><ellipse cx="397.5877" cy="282.35" fill="#F1F1F1" rx="8" ry="8" style="stroke:#181818;stroke-width:0.5;"/><path d="M397.5877,290.35 L397.5877,317.35 M384.5877,298.35 L410.5877,298.35 M397.5877,317.35 L384.5877,332.35 M397.5877,317.35 L410.5877,332.35" fill="none" style="stroke:#181818;stroke-width:0.5;"/><text fill="#000000" font-family="sans-serif" font-size="14" lengthAdjust="spacing" textLength="135.7754" x="329.7" y="346.8451">OS (Power Monitor)</text></g><!--link User to Start--><g class="link" data-entity-1="ent0002" data-entity-2="ent0005" data-link-type="dependency" data-source-line="17" id="lnk12"><path d="M38.31,87 C53.33,87 71.28,87 94.6,87" fill="none" id="User-to-Start" style="stroke:#181818;stroke-width:1;"/><polygon fill="#181818" points="100.6,87,91.6,83,95.6,87,91.6,91,100.6,87" style="stroke:#181818;stroke-width:1;"/></g><!--link Start to Detect--><g class="link" data-entity-1="ent0005" data-entity-2="ent0006" data-link-type="dependency" data-source-line="18" id="lnk13"><path d="M214.27,99.84 C249.19,110.21 292.9487,123.2104 331.5687,134.6904" fill="none" id="Start-to-Detect" style="stroke:#181818;stroke-width:1;"/><polygon fill="#181818" points="337.32,136.4,329.8328,130.0014,332.5273,134.9753,327.5533,137.6698,337.32,136.4" style="stroke:#181818;stroke-width:1;"/></g><!--link Detect to Prompt--><g class="link" data-entity-1="ent0006" data-entity-2="ent0007" data-link-type="dependency" data-source-line="19" id="lnk14"><path d="M476.52,140.86 C528.5,131.58 598.2,118.13 658.99,103 C682.77,97.09 702.9405,91.2413 725.2305,84.3113" fill="none" id="Detect-to-Prompt" style="stroke:#181818;stroke-width:1;stroke-dasharray:7,7;"/><polygon fill="#181818" points="730.96,82.53,721.1782,81.3823,726.1854,84.0144,723.5533,89.0216,730.96,82.53" style="stroke:#181818;stroke-width:1;"/><text fill="#000000" font-family="sans-serif" font-size="13" lengthAdjust="spacing" textLength="61.1851" x="559.6389" y="84.0669">&#171;extend&#187;</text><text fill="#000000" font-family="sans-serif" font-size="13" lengthAdjust="spacing" textLength="132.6152" x="525.99" y="99.1997">(N&#7871;u c&#243; Checkpoint)</text></g><!--link Prompt to Run--><g class="link" data-entity-1="ent0007" data-entity-2="ent0008" data-link-type="dependency" data-source-line="20" id="lnk15"><path d="M880.49,72.92 C933.57,79.07 1001.62,88.58 1061.19,102 C1082.28,106.75 1099.5446,111.8525 1118.6146,118.1725" fill="none" id="Prompt-to-Run" style="stroke:#181818;stroke-width:1;"/><polygon fill="#181818" points="1124.31,120.06,1117.0253,113.4318,1119.5639,118.4871,1114.5086,121.0257,1124.31,120.06" style="stroke:#181818;stroke-width:1;"/><text fill="#000000" font-family="sans-serif" font-size="13" lengthAdjust="spacing" textLength="78.2856" x="950.69" y="74.0669">User &#273;&#7891;ng &#253;</text></g><!--link Prompt to Start--><g class="link" data-entity-1="ent0007" data-entity-2="ent0005" data-link-type="dependency" data-source-line="21" id="lnk16"><path d="M688.75,64.08 C639.52,64.39 579.11,65.16 524.99,67 C424.42,70.42 313.9266,77.2289 242.8766,81.9889" fill="none" id="Prompt-to-Start" style="stroke:#181818;stroke-width:1;"/><polygon fill="#181818" points="236.89,82.39,246.1373,85.7794,241.8788,82.0558,245.6025,77.7973,236.89,82.39" style="stroke:#181818;stroke-width:1;"/><text fill="#000000" font-family="sans-serif" font-size="13" lengthAdjust="spacing" textLength="78.1841" x="358.59" y="65.0669">User t&#7915; ch&#7889;i</text></g><!--link Run to Save--><g class="link" data-entity-1="ent0008" data-entity-2="ent0009" data-link-type="dependency" data-source-line="23" id="lnk17"><path d="M1243.97,135 C1293.8,135 1353.81,135 1409.11,135" fill="none" id="Run-to-Save" style="stroke:#181818;stroke-width:1;"/><polygon fill="#181818" points="1415.11,135,1406.11,131,1410.11,135,1406.11,139,1415.11,135" style="stroke:#181818;stroke-width:1;"/><text fill="#000000" font-family="sans-serif" font-size="13" lengthAdjust="spacing" textLength="110.8237" x="1274.49" y="131.0669">Update ti&#7871;n tr&#236;nh</text></g><!--link OS to Sleep--><g class="link" data-entity-1="ent0003" data-entity-2="ent0010" data-link-type="dependency" data-source-line="25" id="lnk18"><path d="M465.81,277.71 C475.9,271.61 485.95,264.97 494.99,258 C510.19,246.3 508.72,237.14 524.99,227 C584.06,190.18 654.7879,169.1041 709.9879,156.6141" fill="none" id="OS-to-Sleep" style="stroke:#181818;stroke-width:1;"/><polygon fill="#181818" points="715.84,155.29,706.1791,153.3748,710.9633,156.3934,707.9447,161.1776,715.84,155.29" style="stroke:#181818;stroke-width:1;"/><text fill="#000000" font-family="sans-serif" font-size="13" lengthAdjust="spacing" textLength="108.1387" x="537.99" y="168.0669">S&#7921; ki&#7879;n Suspend</text></g><!--link OS to Wake--><g class="link" data-entity-1="ent0003" data-entity-2="ent0011" data-link-type="dependency" data-source-line="26" id="lnk19"><path d="M465.9,296.08 C536.69,279.34 641.6511,254.5211 712.9711,237.6511" fill="none" id="OS-to-Wake" style="stroke:#181818;stroke-width:1;"/><polygon fill="#181818" points="718.81,236.27,709.1309,234.4491,713.9443,237.4209,710.9724,242.2343,718.81,236.27" style="stroke:#181818;stroke-width:1;"/><text fill="#000000" font-family="sans-serif" font-size="13" lengthAdjust="spacing" textLength="104.8379" x="539.99" y="248.0669">S&#7921; ki&#7879;n Resume</text></g><!--link Sleep to Run--><g class="link" data-entity-1="ent0010" data-entity-2="ent0008" data-link-type="dependency" data-source-line="28" id="lnk20"><path d="M881.68,140.96 C934.27,140.29 1001.43,139.29 1061.19,138 C1070.96,137.79 1075.2421,137.6997 1085.3821,137.4297" fill="none" id="Sleep-to-Run" style="stroke:#181818;stroke-width:1;stroke-dasharray:7,7;"/><polygon fill="#181818" points="1091.38,137.27,1082.2767,133.511,1086.3818,137.4031,1082.4897,141.5081,1091.38,137.27" style="stroke:#181818;stroke-width:1;"/><text fill="#000000" font-family="sans-serif" font-size="13" lengthAdjust="spacing" textLength="61.1851" x="957.1902" y="119.0669">&#171;extend&#187;</text><text fill="#000000" font-family="sans-serif" font-size="13" lengthAdjust="spacing" textLength="128.3179" x="925.69" y="134.1997">(G&#7917;i t&#237;n hi&#7879;u Pause)</text></g><!--link Wake to Run--><g class="link" data-entity-1="ent0011" data-entity-2="ent0008" data-link-type="dependency" data-source-line="29" id="lnk21"><path d="M883.29,212.83 C936.24,207.23 1003.24,197.51 1061.19,181 C1086.87,173.69 1109.0815,164.069 1129.5615,154.039" fill="none" id="Wake-to-Run" style="stroke:#181818;stroke-width:1;stroke-dasharray:7,7;"/><polygon fill="#181818" points="1134.95,151.4,1125.108,151.7662,1130.4596,153.5992,1128.6266,158.9508,1134.95,151.4" style="stroke:#181818;stroke-width:1;"/><text fill="#000000" font-family="sans-serif" font-size="13" lengthAdjust="spacing" textLength="61.1851" x="957.4918" y="162.0669">&#171;extend&#187;</text><text fill="#000000" font-family="sans-serif" font-size="13" lengthAdjust="spacing" textLength="141.9209" x="919.19" y="177.1997">(G&#7917;i t&#237;n hi&#7879;u Ti&#7871;p t&#7909;c)</text></g><?plantuml-src ZPAzRjH058NxUOgZhNQBpGD4qI8K993uoMeT10NDQFQo7jcUiSRZm0fHKwA8YWAX51GeH0gY8bP4OSXxp9imFmPv2oGQUpppdNlddEkIdbjO3ICtkSLQ6X9MQiMQGggQ6rwXvgBW6yhijYI4Owus9J76XTK6Zniomt9ob66wr2_8uA5Mqc_D9k0DZZB6_kemMP7G9sIsoBQDfMg2Lmne6nAyyQVtSzTzbFXvwhhtQeDZhSjO9BFSs36upFipYrowxet2OKwYgBLK5kBNvoYuGzRt72lkkUwjXDhSNBhkWyIw_-uRhAXfAxeL9KkZgtf7SfYxgxCjRhTMLppa4hbLgyRGWvlBTdo3QS3d3J-Xv3_pgp7_r7KNAFjh7mooagZsgN5_Ej1Xvr_u4ruGfkdE2Gyxx3LZOGwOpnT3KF4PluSSqWjxUul19lPnS40lBQdrOe5dQlh8NVre8Vfl8oypDi2XahVjHR5H6Cyxdrv_FGPIqm6nhZk7yDCybTuDm88yKZwE0DLhRWbM-hOArlHVL9v0xpDoCPfzPAxxYYBDEMkRsb_u3nBZs2LIDgbGgX0ifwll-hthSvMm_OLAVr6BD0KMg_w_wZWug8FVJsBs6m00?></g></svg>